<svg data-logo="logo" xmlns="http://www.w3.org/2000/svg" viewBox="0 0 58 39">
  <g id="logogram" transform="translate(0, 19.5) rotate(0) "></g>
  <g id="logotype" transform="translate(0, 1)">
    <path fill="#00bba7"
      d="M0.95 7.83L0.95 6.50L11.73 6.50L11.73 7.83Q11.17 8.18 10.47 8.46Q9.77 8.74 9.07 8.84L9.07 8.84L9.07 26.77Q9.07 29.63 8.21 31.47Q7.35 33.31 6.18 34.38Q5.01 35.45 3.78 35.94Q2.56 36.42 1.79 36.60L1.79 36.60L1.12 35.69Q1.65 35.27 2.14 34.62Q2.63 33.98 2.99 32.96Q3.36 31.95 3.59 30.49Q3.82 29.04 3.82 26.98L3.82 26.98L3.82 8.84Q3.05 8.67 2.29 8.44Q1.54 8.21 0.95 7.83L0.95 7.83ZM28.25 28.55L29.96 23.65L31.40 23.65Q31.54 24.21 31.66 25.00Q31.78 25.79 31.87 26.68Q31.96 27.57 31.99 28.45Q32.03 29.32 32.03 30.02L32.03 30.02Q30.80 30.79 28.96 31.11Q27.13 31.42 25.20 31.42L25.20 31.42Q22.30 31.42 19.93 30.70Q17.57 29.98 15.91 28.43Q14.25 26.87 13.34 24.47Q12.43 22.07 12.43 18.71L12.43 18.71Q12.43 15.39 13.42 12.99Q14.42 10.59 16.10 9.05Q17.78 7.51 20.00 6.80Q22.23 6.08 24.68 6.08L24.68 6.08Q26.98 6.08 28.86 6.41Q30.73 6.74 31.92 7.30L31.92 7.30Q31.92 7.86 31.87 8.74Q31.82 9.61 31.69 10.58Q31.57 11.54 31.41 12.47Q31.26 13.39 31.12 14.02L31.12 14.02L29.65 14.02L27.72 8.74Q27.41 8.56 26.71 8.46Q26.01 8.35 25.27 8.35L25.27 8.35Q23.84 8.35 22.58 8.93Q21.32 9.51 20.34 10.77Q19.36 12.03 18.80 14.01Q18.23 15.98 18.23 18.75L18.23 18.75Q18.23 23.75 20.23 26.45Q22.23 29.14 25.66 29.14L25.66 29.14Q26.64 29.14 27.32 28.99Q28 28.83 28.25 28.55L28.25 28.55ZM46.13 7.83L46.13 6.50L55.51 6.50L55.51 7.83Q54.92 8.21 54.14 8.48Q53.38 8.74 52.75 8.84L52.75 8.84L46.09 17.28Q46.90 18.40 47.98 19.82Q49.07 21.23 50.30 22.76Q51.52 24.28 52.81 25.84Q54.11 27.39 55.34 28.80L55.34 28.80L57.02 29.81L57.02 31L50.92 31L49.53 30.02Q48.69 28.97 47.76 27.69Q46.83 26.41 45.92 25.03Q45.01 23.65 44.13 22.25Q43.26 20.85 42.49 19.52L42.49 19.52L40.98 19.52L40.98 28.66Q41.76 28.80 42.38 29.07Q43.02 29.36 43.47 29.67L43.47 29.67L43.47 31L32.87 31L32.87 29.67Q33.56 29.32 34.30 29.06Q35.03 28.80 35.73 28.66L35.73 28.66L35.73 8.84Q34.93 8.74 34.18 8.46Q33.42 8.18 32.87 7.83L32.87 7.83L32.87 6.50L43.47 6.50L43.47 7.83Q43.02 8.11 42.37 8.39Q41.72 8.67 40.98 8.84L40.98 8.84L40.98 17.73L43.05 17.24L48.69 8.84Q47.98 8.70 47.30 8.41Q46.62 8.11 46.13 7.83L46.13 7.83Z" />
  </g>
</svg>