<svg data-logo="logo" xmlns="http://www.w3.org/2000/svg" viewBox="0 0 200 41">
  <g id="logogram" transform="translate(0, 20.5) rotate(0) "></g>
  <g id="logotype" transform="translate(0, 1)">
    <path fill="#696969"
      d="M2.42 31.44L2.42 14.50L6.97 14.50L6.97 32.73Q6.97 35.92 5.71 37.60Q4.45 39.28 1.68 39.28L1.68 39.28Q0.63 39.28-0.56 39.04L-0.56 39.04L-0.56 35.22Q-0.42 35.22-0.32 35.24Q-0.21 35.26-0.11 35.26L-0.11 35.26Q1.47 35.26 1.94 34.24Q2.42 33.23 2.42 31.44L2.42 31.44ZM1.79 9.56L1.79 9.56Q1.79 8.55 2.54 7.83Q3.29 7.11 4.62 7.11L4.62 7.11Q5.95 7.11 6.77 7.83Q7.60 8.55 7.60 9.56L7.60 9.56Q7.60 10.58 6.77 11.26Q5.95 11.94 4.62 11.94L4.62 11.94Q3.29 11.94 2.54 11.26Q1.79 10.58 1.79 9.56ZM10.89 32L10.89 14.50L15.44 14.50L15.44 32L10.89 32ZM10.22 9.56L10.22 9.56Q10.22 8.55 10.97 7.83Q11.73 7.11 13.06 7.11L13.06 7.11Q14.39 7.11 15.21 7.83Q16.03 8.55 16.03 9.56L16.03 9.56Q16.03 10.58 15.21 11.26Q14.39 11.94 13.06 11.94L13.06 11.94Q11.73 11.94 10.97 11.26Q10.22 10.58 10.22 9.56ZM33.53 32L28.98 32L28.98 22.48Q28.98 20.06 28.53 19.05Q28.07 18.03 26.64 18.03L26.64 18.03Q25.45 18.03 24.71 18.68Q23.98 19.33 23.59 20.34L23.59 20.34L23.59 32L19.04 32L19.04 14.50L22.58 14.50L23.10 16.81L23.24 16.81Q24.05 15.69 25.29 14.85Q26.53 14.01 28.49 14.01L28.49 14.01Q30.17 14.01 31.24 14.69Q32.31 15.38 32.90 16.98L32.90 16.98Q33.70 15.62 34.97 14.81Q36.23 14.01 38.01 14.01L38.01 14.01Q39.48 14.01 40.51 14.36Q41.55 14.71 42.19 15.57Q42.84 16.42 43.16 17.86Q43.47 19.29 43.47 21.50L43.47 21.50L43.47 32L38.92 32L38.92 22.16Q38.92 20.10 38.48 19.07Q38.05 18.03 36.54 18.03L36.54 18.03Q35.32 18.03 34.60 18.70Q33.88 19.36 33.53 20.52L33.53 20.52L33.53 32ZM45.82 29.69L45.82 29.69Q45.82 28.46 46.59 27.75Q47.36 27.03 48.62 27.03L48.62 27.03Q49.95 27.03 50.72 27.75Q51.49 28.46 51.49 29.69L51.49 29.69Q51.49 30.91 50.72 31.65Q49.95 32.38 48.62 32.38L48.62 32.38Q47.36 32.38 46.59 31.65Q45.82 30.91 45.82 29.69ZM64.12 32L59.85 24.75L58.63 24.75L58.63 32L54.08 32L54.08 7.50L58.63 7.50L58.63 21.95L59.68 21.46L63.67 14.50L68.67 14.50L64.47 21.15L62.69 22.48L64.61 23.84L69.34 32L64.12 32ZM75.08 7.50L75.08 26.12Q75.08 27.34 75.39 27.91Q75.71 28.46 76.41 28.46L76.41 28.46Q76.83 28.46 77.23 28.39Q77.63 28.32 78.23 28.08L78.23 28.08L78.72 31.65Q78.16 31.93 77.00 32.21Q75.85 32.49 74.62 32.49L74.62 32.49Q72.63 32.49 71.58 31.56Q70.53 30.63 70.53 28.50L70.53 28.50L70.53 7.50L75.08 7.50ZM78.96 23.25L78.96 23.25Q78.96 18.80 81.13 16.41Q83.30 14.01 87.22 14.01L87.22 14.01Q89.32 14.01 90.86 14.67Q92.40 15.34 93.42 16.55Q94.43 17.75 94.94 19.47Q95.45 21.18 95.45 23.25L95.45 23.25Q95.45 27.70 93.29 30.09Q91.14 32.49 87.22 32.49L87.22 32.49Q85.12 32.49 83.58 31.82Q82.04 31.16 81.01 29.95Q79.98 28.75 79.47 27.03Q78.96 25.31 78.96 23.25ZM83.65 23.25L83.65 23.25Q83.65 24.41 83.86 25.38Q84.07 26.36 84.49 27.10Q84.91 27.84 85.59 28.24Q86.28 28.64 87.22 28.64L87.22 28.64Q89.01 28.64 89.88 27.34Q90.76 26.05 90.76 23.25L90.76 23.25Q90.76 20.84 89.95 19.35Q89.15 17.86 87.22 17.86L87.22 17.86Q85.54 17.86 84.60 19.12Q83.65 20.38 83.65 23.25ZM112.98 32L108.43 32L108.43 22.06Q108.43 19.92 107.82 18.98Q107.21 18.03 105.74 18.03L105.74 18.03Q104.44 18.03 103.55 18.79Q102.66 19.54 102.27 20.66L102.27 20.66L102.27 32L97.72 32L97.72 14.50L101.33 14.50L101.85 16.81L101.99 16.81Q102.80 15.69 104.13 14.85Q105.46 14.01 107.56 14.01L107.56 14.01Q108.85 14.01 109.87 14.36Q110.88 14.71 111.58 15.51Q112.28 16.32 112.63 17.70Q112.98 19.09 112.98 21.11L112.98 21.11L112.98 32ZM115.08 23.25L115.08 23.25Q115.08 18.80 117.25 16.41Q119.42 14.01 123.34 14.01L123.34 14.01Q125.44 14.01 126.98 14.67Q128.52 15.34 129.54 16.55Q130.55 17.75 131.06 19.47Q131.57 21.18 131.57 23.25L131.57 23.25Q131.57 27.70 129.41 30.09Q127.26 32.49 123.34 32.49L123.34 32.49Q121.24 32.49 119.70 31.82Q118.16 31.16 117.13 29.95Q116.10 28.75 115.59 27.03Q115.08 25.31 115.08 23.25ZM119.77 23.25L119.77 23.25Q119.77 24.41 119.98 25.38Q120.19 26.36 120.61 27.10Q121.03 27.84 121.71 28.24Q122.40 28.64 123.34 28.64L123.34 28.64Q125.13 28.64 126.00 27.34Q126.88 26.05 126.88 23.25L126.88 23.25Q126.88 20.84 126.07 19.35Q125.27 17.86 123.34 17.86L123.34 17.86Q121.66 17.86 120.72 19.12Q119.77 20.38 119.77 23.25ZM142.84 14.50L146.20 14.50L149.38 23.46L150.01 26.36L150.15 26.36L150.64 23.42L152.88 14.50L157.05 14.50L151.66 32.17L148.30 32.17L144.76 22.38L144.31 20.17L144.13 20.17L143.71 22.41L140.35 32.17L136.89 32.17L131.25 14.50L136.19 14.50L138.74 23.28L139.16 26.40L139.34 26.40L139.93 23.25L142.84 14.50ZM155.44 29.69L155.44 29.69Q155.44 28.46 156.21 27.75Q156.98 27.03 158.24 27.03L158.24 27.03Q159.57 27.03 160.34 27.75Q161.11 28.46 161.11 29.69L161.11 29.69Q161.11 30.91 160.34 31.65Q159.57 32.38 158.24 32.38L158.24 32.38Q156.98 32.38 156.21 31.65Q155.44 30.91 155.44 29.69ZM170.94 27.17L170.94 27.17Q170.94 26.47 170.35 26.05Q169.75 25.63 168.88 25.28Q168.00 24.93 166.95 24.56Q165.90 24.20 165.03 23.55Q164.15 22.90 163.56 21.90Q162.96 20.91 162.96 19.33L162.96 19.33Q162.96 16.74 164.50 15.38Q166.04 14.01 168.95 14.01L168.95 14.01Q170.94 14.01 172.55 14.43Q174.16 14.85 175.07 15.38L175.07 15.38L174.06 18.66Q173.25 18.35 172.03 18Q170.80 17.65 169.54 17.65L169.54 17.65Q167.51 17.65 167.51 19.23L167.51 19.23Q167.51 19.85 168.11 20.24Q168.70 20.63 169.58 20.96Q170.45 21.29 171.50 21.67Q172.55 22.06 173.43 22.67Q174.30 23.28 174.90 24.27Q175.49 25.24 175.49 26.79L175.49 26.79Q175.49 29.45 173.79 30.97Q172.10 32.49 168.70 32.49L168.70 32.49Q166.85 32.49 165.22 32.02Q163.59 31.55 162.58 30.91L162.58 30.91L163.84 27.52Q164.64 27.98 165.97 28.41Q167.30 28.85 168.70 28.85L168.70 28.85Q169.72 28.85 170.33 28.46Q170.94 28.08 170.94 27.17ZM187.64 32L183.37 24.75L182.14 24.75L182.14 32L177.59 32L177.59 7.50L182.14 7.50L182.14 21.95L183.19 21.46L187.18 14.50L192.19 14.50L187.99 21.15L186.20 22.48L188.13 23.84L192.85 32L187.64 32ZM194.29 32L194.29 14.50L198.84 14.50L198.84 32L194.29 32ZM193.62 9.56L193.62 9.56Q193.62 8.55 194.37 7.83Q195.13 7.11 196.46 7.11L196.46 7.11Q197.79 7.11 198.61 7.83Q199.43 8.55 199.43 9.56L199.43 9.56Q199.43 10.58 198.61 11.26Q197.79 11.94 196.46 11.94L196.46 11.94Q195.13 11.94 194.37 11.26Q193.62 10.58 193.62 9.56Z" />
  </g>
</svg>