<svg viewBox="0 0 177 41" xmlns="http://www.w3.org/2000/svg" data-logo="logo">
  <g transform="translate(0, 20.5) rotate(0)" id="logogram"></g>
  <g transform="translate(0, 1)" id="logotype">
    <path
      d="M1.89 31.51L1.89 14.50L6.06 14.50L6.06 32.73Q6.06 35.92 4.95 37.60Q3.85 39.28 1.44 39.28L1.44 39.28Q0.46 39.28-0.56 39.04L-0.56 39.04L-0.56 35.33Q0.95 35.47 1.42 34.47Q1.89 33.47 1.89 31.51L1.89 31.51ZM1.37 9.56L1.37 9.56Q1.37 8.51 2.03 7.83Q2.70 7.15 3.92 7.15L3.92 7.15Q5.15 7.15 5.88 7.81Q6.62 8.48 6.62 9.56L6.62 9.56Q6.62 10.65 5.88 11.28Q5.15 11.91 3.92 11.91L3.92 11.91Q2.70 11.91 2.03 11.26Q1.37 10.61 1.37 9.56ZM9.73 32L9.73 14.50L13.90 14.50L13.90 32L9.73 32ZM9.24 9.56L9.24 9.56Q9.24 8.51 9.91 7.83Q10.57 7.15 11.80 7.15L11.80 7.15Q13.02 7.15 13.76 7.81Q14.49 8.48 14.49 9.56L14.49 9.56Q14.49 10.65 13.76 11.28Q13.02 11.91 11.80 11.91L11.80 11.91Q10.57 11.91 9.91 11.26Q9.24 10.61 9.24 9.56ZM29.51 32L25.34 32L25.34 21.81Q25.34 19.61 24.99 18.75Q24.64 17.89 23.63 17.89L23.63 17.89Q22.79 17.89 22.24 18.44Q21.70 18.98 21.42 19.75L21.42 19.75L21.42 32L17.26 32L17.26 14.50L20.48 14.50L21.00 16.60L21.11 16.60Q21.77 15.51 22.77 14.80Q23.77 14.08 25.41 14.08L25.41 14.08Q26.78 14.08 27.63 14.67Q28.49 15.27 28.98 16.77L28.98 16.77Q29.65 15.51 30.73 14.80Q31.82 14.08 33.29 14.08L33.29 14.08Q34.44 14.08 35.26 14.38Q36.09 14.67 36.59 15.41Q37.10 16.14 37.35 17.42Q37.59 18.70 37.59 20.66L37.59 20.66L37.59 32L33.43 32L33.43 21.36Q33.43 19.57 33.11 18.73Q32.80 17.89 31.71 17.89L31.71 17.89Q30.84 17.89 30.29 18.40Q29.75 18.91 29.51 19.78L29.51 19.78L29.51 32ZM40.15 29.73L40.15 29.73Q40.15 28.43 40.83 27.77Q41.51 27.10 42.63 27.10L42.63 27.10Q43.86 27.10 44.52 27.77Q45.19 28.43 45.19 29.73L45.19 29.73Q45.19 30.98 44.50 31.68Q43.82 32.38 42.63 32.38L42.63 32.38Q41.48 32.38 40.81 31.68Q40.15 30.98 40.15 29.73ZM56.11 32L53.03 24.75L52.05 24.75L52.05 32L47.88 32L47.88 7.50L52.05 7.50L52.05 21.95L52.89 21.46L55.79 14.50L60.31 14.50L57.09 21.43L55.58 22.62L57.23 23.81L60.80 32L56.11 32ZM66.54 7.50L66.54 26.33Q66.54 27.55 66.78 28.08Q67.03 28.61 67.59 28.61L67.59 28.61Q67.90 28.61 68.23 28.54Q68.57 28.46 68.99 28.29L68.99 28.29L69.37 31.65Q68.95 31.93 67.94 32.17Q66.92 32.42 65.87 32.42L65.87 32.42Q64.12 32.42 63.25 31.55Q62.37 30.67 62.37 28.57L62.37 28.57L62.37 7.50L66.54 7.50ZM70.18 23.25L70.18 23.25Q70.18 18.59 72.00 16.32Q73.82 14.04 77.07 14.04L77.07 14.04Q80.57 14.04 82.29 16.35Q84.00 18.66 84.00 23.25L84.00 23.25Q84.00 27.94 82.18 30.20Q80.36 32.45 77.07 32.45L77.07 32.45Q70.18 32.45 70.18 23.25ZM74.48 23.25L74.48 23.25Q74.48 25.88 75.08 27.31Q75.67 28.75 77.07 28.75L77.07 28.75Q78.40 28.75 79.05 27.50Q79.70 26.26 79.70 23.25L79.70 23.25Q79.70 20.55 79.10 19.16Q78.51 17.75 77.07 17.75L77.07 17.75Q75.85 17.75 75.16 19.00Q74.48 20.24 74.48 23.25ZM99.23 32L95.06 32L95.06 21.36Q95.06 19.43 94.61 18.66Q94.15 17.89 93.07 17.89L93.07 17.89Q92.16 17.89 91.49 18.45Q90.83 19.02 90.55 19.85L90.55 19.85L90.55 32L86.38 32L86.38 14.50L89.71 14.50L90.20 16.53L90.30 16.53Q90.93 15.51 92.02 14.80Q93.10 14.08 94.85 14.08L94.85 14.08Q95.90 14.08 96.72 14.39Q97.55 14.71 98.11 15.43Q98.67 16.14 98.95 17.35Q99.23 18.56 99.23 20.34L99.23 20.34L99.23 32ZM101.47 23.25L101.47 23.25Q101.47 18.59 103.29 16.32Q105.11 14.04 108.36 14.04L108.36 14.04Q111.86 14.04 113.58 16.35Q115.29 18.66 115.29 23.25L115.29 23.25Q115.29 27.94 113.47 30.20Q111.65 32.45 108.36 32.45L108.36 32.45Q101.47 32.45 101.47 23.25ZM105.77 23.25L105.77 23.25Q105.77 25.88 106.37 27.31Q106.96 28.75 108.36 28.75L108.36 28.75Q109.69 28.75 110.34 27.50Q110.99 26.26 110.99 23.25L110.99 23.25Q110.99 20.55 110.39 19.16Q109.80 17.75 108.36 17.75L108.36 17.75Q107.14 17.75 106.45 19.00Q105.77 20.24 105.77 23.25ZM125.13 14.50L128.24 14.50L130.69 23.46L131.11 26.36L131.25 26.36L131.60 23.42L133.25 14.50L137.03 14.50L132.72 32.17L129.43 32.17L126.81 22.41L126.53 20.17L126.32 20.17L126.07 22.48L123.55 32.17L120.16 32.17L115.68 14.50L120.19 14.50L122.08 23.28L122.40 26.40L122.54 26.40L122.99 23.25L125.13 14.50ZM136.47 29.73L136.47 29.73Q136.47 28.43 137.15 27.77Q137.83 27.10 138.95 27.10L138.95 27.10Q140.18 27.10 140.84 27.77Q141.51 28.43 141.51 29.73L141.51 29.73Q141.51 30.98 140.82 31.68Q140.14 32.38 138.95 32.38L138.95 32.38Q137.80 32.38 137.13 31.68Q136.47 30.98 136.47 29.73ZM150.08 27.34L150.08 27.34Q150.08 26.61 149.61 26.10Q149.14 25.59 148.40 25.16Q147.67 24.72 146.84 24.27Q146.02 23.81 145.29 23.14Q144.55 22.48 144.08 21.53Q143.61 20.59 143.61 19.16L143.61 19.16Q143.61 16.70 144.94 15.38Q146.27 14.04 148.86 14.04L148.86 14.04Q150.40 14.04 151.76 14.38Q153.13 14.71 153.93 15.20L153.93 15.20L152.95 18.42Q152.29 18.14 151.34 17.88Q150.40 17.61 149.49 17.61L149.49 17.61Q147.77 17.61 147.77 19.05L147.77 19.05Q147.77 19.71 148.24 20.15Q148.72 20.59 149.45 21.01Q150.19 21.43 151.01 21.88Q151.83 22.34 152.57 23.02Q153.30 23.70 153.77 24.68Q154.25 25.66 154.25 27.10L154.25 27.10Q154.25 29.52 152.78 30.98Q151.31 32.45 148.40 32.45L148.40 32.45Q146.97 32.45 145.58 32.10Q144.20 31.75 143.36 31.20L143.36 31.20L144.52 27.84Q145.25 28.25 146.21 28.57Q147.18 28.88 148.23 28.88L148.23 28.88Q149.03 28.88 149.56 28.52Q150.08 28.15 150.08 27.34ZM164.68 32L161.60 24.75L160.62 24.75L160.62 32L156.45 32L156.45 7.50L160.62 7.50L160.62 21.95L161.46 21.46L164.36 14.50L168.88 14.50L165.66 21.43L164.15 22.62L165.80 23.81L169.37 32L164.68 32ZM171.22 32L171.22 14.50L175.39 14.50L175.39 32L171.22 32ZM170.73 9.56L170.73 9.56Q170.73 8.51 171.40 7.83Q172.06 7.15 173.28 7.15L173.28 7.15Q174.51 7.15 175.25 7.81Q175.98 8.48 175.98 9.56L175.98 9.56Q175.98 10.65 175.25 11.28Q174.51 11.91 173.28 11.91L173.28 11.91Q172.06 11.91 171.40 11.26Q170.73 10.61 170.73 9.56Z"
      fill="#00bba7">
    </path>
  </g>

</svg>